{"title":"Mr. X (2015) Pre DvD Rip - X264 - [1CD] - IcTv LotterY Exclusive","uid":11825491,"size":731148599,"categoryP":"video","categoryS":"movies","magnet":"?xt=urn:btih:df1e5e379986abe274423ae79d6ffa3ed9e0d8fd&amp;dn=Mr.+X+%282015%29+Pre+DvD+Rip+-+X264+-+%5B1CD%5D+-+IcTv+LotterY+Exclusive&amp;tr=udp%3A%2F%2Ftracker.openbittorrent.com%3A80&amp;tr=udp%3A%2F%2Fopen.demonii.com%3A1337&amp;tr=udp%3A%2F%2Ftracker.coppersurfer.tk%3A6969&amp;tr=udp%3A%2F%2Fexodus.desync.com%3A6969","seeders":26,"leechers":1,"uploader":"makintos13","files":1,"time":1429474896,"description":"screen::\n &lt;a href=&quot;\nhttp://imgmak.com/7V&quot; rel=&quot;nofollow&quot; target=&quot;_NEW&quot;&gt;\nhttp://imgmak.com/7V&lt;/a&gt;\n &lt;a href=&quot;\nhttp://imgmak.com/7e&quot; rel=&quot;nofollow&quot; target=&quot;_NEW&quot;&gt;\nhttp://imgmak.com/7e&lt;/a&gt;\n &lt;a href=&quot;\nhttp://imgmak.com/7g&quot; rel=&quot;nofollow&quot; target=&quot;_NEW&quot;&gt;\nhttp://imgmak.com/7g&lt;/a&gt;\n &lt;a href=&quot;\nhttp://imgmak.com/7o&quot; rel=&quot;nofollow&quot; target=&quot;_NEW&quot;&gt;\nhttp://imgmak.com/7o&lt;/a&gt;\n &lt;a href=&quot;\nhttp://imgmak.com/7N&quot; rel=&quot;nofollow&quot; target=&quot;_NEW&quot;&gt;\nhttp://imgmak.com/7N&lt;/a&gt;\n\nMovie Info\nBanner : Vishesh Films\nYear : 2015\nCast : Emraan Hashmi.Amyra Dastur.Nora Fatehi\nVideo: X264\nAudio : AC 3\nGenre : Thriller, 3D, Social\nSubtitles : None\nResolution : 640 x 272\nRuntime : 2hr 02min xx\nSource : Team IcTv\n\nFormat : Matroska\nFormat version : Version 2\nFile size : 697 MiB\nDuration : 2h 2mn\nOverall bit rate : 798 Kbps\n\nVideo\nID : 1\nFormat : AVC\nFormat/Info : Advanced Video Codec\nFormat profile : &lt;a class=&quot;__cf_email__&quot; href=&quot;/cdn-cgi/l/email-protection&quot; data-cfemail=&quot;0e466769664e423c203f&quot;&gt;[email&amp;#160;protected]&lt;/a&gt;&lt;script cf-hash='f9e31' type=&quot;text/javascript&quot;&gt;\n/* &lt;![CDATA[ */!function(){try{var t=&quot;currentScript&quot;in document?document.currentScript:function(){for(var t=document.getElementsByTagName(&quot;script&quot;),e=t.length;e--;)if(t[e].getAttribute(&quot;cf-hash&quot;))return t[e]}();if(t&amp;&amp;t.previousSibling){var e,r,n,i,c=t.previousSibling,a=c.getAttribute(&quot;data-cfemail&quot;);if(a){for(e=&quot;&quot;,r=parseInt(a.substr(0,2),16),n=2;a.length-n;n+=2)i=parseInt(a.substr(n,2),16)^r,e+=String.fromCharCode(i);e=document.createTextNode(e),c.parentNode.replaceChild(e,c)}}}catch(u){}}();/* ]]&gt; */&lt;/script&gt;\nFormat settings, CABAC : Yes\nFormat settings, ReFrames : 4 frames\nCodec ID : V_MPEG4/ISO/AVC\nDuration : 2h 2mn\nBit rate : 412 Kbps\nWidth : 640 pixels\nHeight : 272 pixels\nDisplay aspect ratio : 2.35:1\nFrame rate mode : Constant\nFrame rate : 25.000 fps\nColor space : YUV\nChroma subsampling : 4:2:0\nBit depth : 8 bits\nScan type : Progressive\nBits/(Pixel*Frame) : 0.095\nStream size : 348 MiB (50%)\n\nAudio\nID : 2\nFormat : AC-3\nFormat/Info : Audio Coding 3\nMode extension : CM (complete main)\nFormat settings, Endianness : Big\nCodec ID : A_AC3\nDuration : 2h 2mn\nBit rate mode : Constant\nBit rate : 384 Kbps\nChannel(s) : 2 channels\nChannel positions : Front: L R\nSampling rate : 48.0 KHz\nBit depth : 16 bits\nCompression mode : Lossy\nStream size : 336 MiB (48%)\n\nLang :Hindi","torrent":{"xt":"urn:btih:df1e5e379986abe274423ae79d6ffa3ed9e0d8fd","amp;dn":"Mr.+X+%282015%29+Pre+DvD+Rip+-+X264+-+%5B1CD%5D+-+IcTv+LotterY+Exclusive","amp;tr":["udp%3A%2F%2Ftracker.openbittorrent.com%3A80","udp%3A%2F%2Fopen.demonii.com%3A1337","udp%3A%2F%2Ftracker.coppersurfer.tk%3A6969","udp%3A%2F%2Fexodus.desync.com%3A6969"],"infoHash":"df1e5e379986abe274423ae79d6ffa3ed9e0d8fd","infoHashBuffer":{"type":"Buffer","data":[223,30,94,55,153,134,171,226,116,66,58,231,157,111,250,62,217,224,216,253]},"announce":[],"urlList":[]}}